<?xml version="1.0" encoding="UTF-8"?>
<svg id="Layer_2" data-name="Layer 2" xmlns="http://www.w3.org/2000/svg" viewBox="0 0 345.754 83.284">
  <defs>
    <style>
      .cls-1 {
        fill: #040A16;
      }

      .cls-2 {
        fill: #040A16;
      }
    </style>
  </defs>
  <g id="Layer_1-2" data-name="Layer 1">
    <g>
      <path class="cls-2" d="M5.447,10.167h23.5c4.632,0,8.374.628,11.226,1.885,2.852,1.257,5.208,3.062,7.071,5.412,1.861,2.352,3.212,5.087,4.05,8.206.838,3.12,1.257,6.425,1.257,9.917,0,5.471-.623,9.713-1.868,12.728s-2.974,5.54-5.185,7.577c-2.212,2.037-4.587,3.393-7.123,4.068-3.469.931-6.611,1.396-9.428,1.396H5.447V10.167ZM21.265,21.759v27.969h3.876c3.306,0,5.657-.367,7.054-1.1s2.49-2.013,3.282-3.841c.791-1.827,1.188-4.789,1.188-8.887,0-5.423-.886-9.136-2.654-11.139-1.77-2.001-4.702-3.003-8.799-3.003h-3.946Z"/>
      <path class="cls-2" d="M101.087,46.341h-28.493c.256,2.282.873,3.98,1.851,5.098,1.373,1.606,3.165,2.409,5.377,2.409,1.397,0,2.724-.349,3.981-1.047.768-.442,1.594-1.222,2.479-2.339l14.002,1.292c-2.142,3.725-4.726,6.396-7.752,8.014s-7.367,2.427-13.023,2.427c-4.912,0-8.776-.693-11.593-2.078-2.817-1.385-5.15-3.584-7.001-6.599s-2.776-6.559-2.776-10.632c0-5.796,1.856-10.487,5.569-14.072,3.713-3.584,8.84-5.377,15.381-5.377,5.308,0,9.498.803,12.571,2.409,3.072,1.606,5.412,3.934,7.018,6.983,1.606,3.05,2.41,7.019,2.41,11.907v1.606ZM86.631,39.532c-.279-2.747-1.019-4.714-2.218-5.901-1.199-1.187-2.775-1.781-4.731-1.781-2.258,0-4.062.896-5.412,2.688-.861,1.118-1.408,2.782-1.641,4.994h14.002Z"/>
      <path class="cls-2" d="M148.784,46.341h-28.493c.256,2.282.873,3.98,1.851,5.098,1.373,1.606,3.165,2.409,5.377,2.409,1.397,0,2.724-.349,3.981-1.047.768-.442,1.594-1.222,2.479-2.339l14.002,1.292c-2.142,3.725-4.726,6.396-7.752,8.014s-7.367,2.427-13.023,2.427c-4.912,0-8.776-.693-11.593-2.078-2.817-1.385-5.15-3.584-7.001-6.599s-2.776-6.559-2.776-10.632c0-5.796,1.856-10.487,5.569-14.072,3.713-3.584,8.84-5.377,15.381-5.377,5.308,0,9.498.803,12.571,2.409,3.072,1.606,5.412,3.934,7.018,6.983,1.606,3.05,2.41,7.019,2.41,11.907v1.606ZM134.328,39.532c-.279-2.747-1.019-4.714-2.218-5.901-1.199-1.187-2.775-1.781-4.731-1.781-2.258,0-4.062.896-5.412,2.688-.861,1.118-1.408,2.782-1.641,4.994h14.002Z"/>
      <path class="cls-2" d="M155.384,75.462V24.273h13.304v5.482c1.838-2.304,3.526-3.864,5.062-4.679,2.071-1.094,4.365-1.641,6.879-1.641,4.958,0,8.793,1.897,11.505,5.691,2.712,3.794,4.068,8.485,4.068,14.072,0,6.169-1.479,10.877-4.435,14.124-2.956,3.248-6.692,4.871-11.209,4.871-2.188,0-4.185-.373-5.988-1.117s-3.416-1.851-4.836-3.317v17.704h-14.351ZM169.63,42.919c0,2.933.616,5.11,1.851,6.53,1.233,1.42,2.793,2.13,4.679,2.13,1.653,0,3.038-.681,4.155-2.043,1.117-1.361,1.676-3.671,1.676-6.931,0-3.003-.582-5.208-1.745-6.617-1.165-1.408-2.584-2.112-4.261-2.112-1.815,0-3.329.71-4.539,2.13-1.21,1.42-1.815,3.725-1.815,6.914Z"/>
      <path class="cls-1" d="M203.884,10.167h26.294c5.727,0,10.014,1.362,12.867,4.085,2.85,2.724,4.277,6.6,4.277,11.628,0,5.167-1.555,9.207-4.662,12.116-3.107,2.91-7.852,4.365-14.229,4.365h-8.66v18.995h-15.888V10.167ZM219.771,31.99h3.875c3.051,0,5.191-.529,6.426-1.589,1.234-1.059,1.852-2.415,1.852-4.068,0-1.606-.537-2.968-1.607-4.085-1.07-1.118-3.084-1.676-6.041-1.676h-4.504v11.418Z"/>
      <path class="cls-1" d="M254.654,10.167h14.211v18.855c1.933-2.002,3.853-3.434,5.762-4.295,1.908-.861,4.167-1.292,6.774-1.292,3.863,0,6.907,1.176,9.131,3.527,2.223,2.351,3.334,5.959,3.334,10.824v23.569h-14.281v-20.392c0-2.327-.431-3.974-1.292-4.94-.861-.966-2.071-1.449-3.631-1.449-1.723,0-3.12.652-4.19,1.956s-1.606,3.643-1.606,7.018v17.808h-14.211V10.167Z"/>
      <path class="cls-1" d="M343.52,46.341h-28.493c.256,2.282.873,3.98,1.851,5.098,1.373,1.606,3.166,2.409,5.378,2.409,1.396,0,2.724-.349,3.98-1.047.768-.442,1.594-1.222,2.479-2.339l14.002,1.292c-2.142,3.725-4.726,6.396-7.751,8.014-3.026,1.618-7.368,2.427-13.024,2.427-4.912,0-8.776-.693-11.593-2.078-2.817-1.385-5.15-3.584-7.001-6.599s-2.776-6.559-2.776-10.632c0-5.796,1.856-10.487,5.569-14.072,3.713-3.584,8.84-5.377,15.382-5.377,5.308,0,9.497.803,12.57,2.409,3.072,1.606,5.412,3.934,7.019,6.983,1.605,3.05,2.409,7.019,2.409,11.907v1.606ZM329.063,39.532c-.279-2.747-1.019-4.714-2.218-5.901-1.199-1.187-2.775-1.781-4.73-1.781-2.259,0-4.062.896-5.413,2.688-.861,1.118-1.408,2.782-1.641,4.994h14.002Z"/>
    </g>
  </g>
</svg>